<svg width="70" height="526" viewBox="0 0 70 526" fill="none" xmlns="http://www.w3.org/2000/svg">
<path opacity="0.05" d="M0 0H70V526H0V0Z" fill="#381DDB"/>
<g opacity="0.3" clip-path="url(#clip0)">
<path opacity="0.3" fill-rule="evenodd" clip-rule="evenodd" d="M2.97354 49.8047L5.5637 57.7773H13.9471L7.16523 62.7047L9.75539 70.6782L2.97354 65.7508L-3.80831 70.6782L-1.21815 62.7047L-8 57.7773H0.383387L2.97354 49.8047Z" stroke="#222222" stroke-width="2" stroke-linecap="round" stroke-linejoin="round"/>
<g opacity="0.3">
<path d="M66.9741 139.37C67.9937 139.37 68.8202 138.543 68.8202 137.524C68.8202 136.504 67.9937 135.678 66.9741 135.678C65.9545 135.678 65.1279 136.504 65.1279 137.524C65.1279 138.543 65.9545 139.37 66.9741 139.37Z" fill="#222222"/>
<path d="M61.4355 139.37C62.4551 139.37 63.2817 138.543 63.2817 137.524C63.2817 136.504 62.4551 135.678 61.4355 135.678C60.4159 135.678 59.5894 136.504 59.5894 137.524C59.5894 138.543 60.4159 139.37 61.4355 139.37Z" fill="#222222"/>
<path d="M55.8969 139.37C56.9165 139.37 57.7431 138.543 57.7431 137.524C57.7431 136.504 56.9165 135.678 55.8969 135.678C54.8773 135.678 54.0508 136.504 54.0508 137.524C54.0508 138.543 54.8773 139.37 55.8969 139.37Z" fill="#222222"/>
</g>
<rect opacity="0.3" x="25.1279" y="204.37" width="14.7692" height="14.7692" rx="7.38461" stroke="#222222" stroke-width="2"/>
<g opacity="0.3">
<path d="M18.0507 299.986C19.0703 299.986 19.8969 299.16 19.8969 298.14C19.8969 297.12 19.0703 296.294 18.0507 296.294C17.0311 296.294 16.2046 297.12 16.2046 298.14C16.2046 299.16 17.0311 299.986 18.0507 299.986Z" fill="#222222"/>
<path d="M6.97359 299.986C7.9932 299.986 8.81975 299.16 8.81975 298.14C8.81975 297.12 7.9932 296.294 6.97359 296.294C5.95399 296.294 5.12744 297.12 5.12744 298.14C5.12744 299.16 5.95399 299.986 6.97359 299.986Z" fill="#222222"/>
</g>
</g>
<defs>
<clipPath id="clip0">
<rect width="70" height="250" fill="white" transform="translate(0 49.8047)"/>
</clipPath>
</defs>
</svg>
